# xmcd
#
# Track frame offsets:
#	150
#	21812
#	37092
#	48410
#	63527
#	80252
#	92592
#	113275
#	124667
#	155042
#
# Disc length: 2162 seconds
#
# Revision: 0
# Processed by: cddbd v1.5.2PL0 Copyright (c) Steve Scherf et al.
# Submitted via: EasyCDDAExtractor 15.2.5.1
#
DISCID=7708700a
DTITLE=The Doobie Brothers - Toulouse Street
DYEAR=1972
DGENRE=Pop/Rock
TTITLE0=Listen To The Music
TTITLE1=Rockin' Down The Highway
TTITLE2=Mamaloi
TTITLE3=Toulouse Street
TTITLE4=Cotton Mouth
TTITLE5=Don't Start Me To Talkin'
TTITLE6=Jesus Is Just Alright
TTITLE7=White Sun
TTITLE8=Disciple
TTITLE9=Snake Man
EXTD=
EXTT0=
EXTT1=
EXTT2=
EXTT3=
EXTT4=
EXTT5=
EXTT6=
EXTT7=
EXTT8=
EXTT9=
PLAYORDER=
